<?xml version="1.0" encoding="UTF-8" standalone="no"?>
<!DOCTYPE svg PUBLIC "-//W3C//DTD SVG 1.1//EN"
 "http://www.w3.org/Graphics/SVG/1.1/DTD/svg11.dtd">
<!-- Generated by graphviz version 2.43.0 (0)
 -->
<!-- Title: dependency&#45;cruiser output Pages: 1 -->
<svg width="692pt" height="250pt"
 viewBox="0.00 0.00 692.00 250.00" xmlns="http://www.w3.org/2000/svg" xmlns:xlink="http://www.w3.org/1999/xlink">
<g id="graph0" class="graph" transform="scale(1 1) rotate(0) translate(4 246)">
<title>dependency&#45;cruiser output</title>
<polygon fill="white" stroke="transparent" points="-4,4 -4,-246 688,-246 688,4 -4,4"/>
<g id="clust1" class="cluster">
<title>cluster_src</title>
<path fill="#ffffff" stroke="black" stroke-width="2" d="M20,-8C20,-8 664,-8 664,-8 670,-8 676,-14 676,-20 676,-20 676,-222 676,-222 676,-228 670,-234 664,-234 664,-234 20,-234 20,-234 14,-234 8,-228 8,-222 8,-222 8,-20 8,-20 8,-14 14,-8 20,-8"/>
<text text-anchor="middle" x="342" y="-222.8" font-family="Helvetica,sans-Serif" font-weight="bold" font-size="9.00">src</text>
</g>
<g id="clust2" class="cluster">
<title>cluster_src/components</title>
<path fill="#ffffff" stroke="black" stroke-width="2" d="M180,-42C180,-42 318,-42 318,-42 324,-42 330,-48 330,-54 330,-54 330,-112 330,-112 330,-118 324,-124 318,-124 318,-124 180,-124 180,-124 174,-124 168,-118 168,-112 168,-112 168,-54 168,-54 168,-48 174,-42 180,-42"/>
<text text-anchor="middle" x="249" y="-112.8" font-family="Helvetica,sans-Serif" font-weight="bold" font-size="9.00">components</text>
</g>
<g id="clust3" class="cluster">
<title>cluster_src/contexts</title>
<path fill="#ffffff" stroke="black" stroke-width="2" d="M438,-95C438,-95 525,-95 525,-95 531,-95 537,-101 537,-107 537,-107 537,-165 537,-165 537,-171 531,-177 525,-177 525,-177 438,-177 438,-177 432,-177 426,-171 426,-165 426,-165 426,-107 426,-107 426,-101 432,-95 438,-95"/>
<text text-anchor="middle" x="481.5" y="-165.8" font-family="Helvetica,sans-Serif" font-weight="bold" font-size="9.00">contexts</text>
</g>
<g id="clust4" class="cluster">
<title>cluster_src/hooks</title>
<path fill="#ffffff" stroke="black" stroke-width="2" d="M261,-132C261,-132 406,-132 406,-132 412,-132 418,-138 418,-144 418,-144 418,-172 418,-172 418,-178 412,-184 406,-184 406,-184 261,-184 261,-184 255,-184 249,-178 249,-172 249,-172 249,-144 249,-144 249,-138 255,-132 261,-132"/>
<text text-anchor="middle" x="333.5" y="-172.8" font-family="Helvetica,sans-Serif" font-weight="bold" font-size="9.00">hooks</text>
</g>
<!-- src/App.css -->
<g id="node1" class="node">
<title>src/App.css</title>
<g id="a_node1"><a xlink:href="src/App.css" xlink:title="App.css">
<path fill="#ffffcc" stroke="black" d="M229.5,-34C229.5,-34 187.5,-34 187.5,-34 184.5,-34 181.5,-31 181.5,-28 181.5,-28 181.5,-22 181.5,-22 181.5,-19 184.5,-16 187.5,-16 187.5,-16 229.5,-16 229.5,-16 232.5,-16 235.5,-19 235.5,-22 235.5,-22 235.5,-28 235.5,-28 235.5,-31 232.5,-34 229.5,-34"/>
<text text-anchor="start" x="190.5" y="-22.8" font-family="Helvetica,sans-Serif" font-size="9.00">App.css</text>
</a>
</g>
</g>
<!-- src/App.tsx -->
<g id="node2" class="node">
<title>src/App.tsx</title>
<g id="a_node2"><a xlink:href="src/App.tsx" xlink:title="App.tsx">
<path fill="#bbfeff" stroke="black" d="M151.5,-83C151.5,-83 109.5,-83 109.5,-83 106.5,-83 103.5,-80 103.5,-77 103.5,-77 103.5,-71 103.5,-71 103.5,-68 106.5,-65 109.5,-65 109.5,-65 151.5,-65 151.5,-65 154.5,-65 157.5,-68 157.5,-71 157.5,-71 157.5,-77 157.5,-77 157.5,-80 154.5,-83 151.5,-83"/>
<text text-anchor="start" x="113" y="-71.8" font-family="Helvetica,sans-Serif" font-size="9.00">App.tsx</text>
</a>
</g>
</g>
<!-- src/App.tsx&#45;&gt;src/App.css -->
<g id="edge1" class="edge">
<title>src/App.tsx&#45;&gt;src/App.css</title>
<path fill="none" stroke="#000000" stroke-width="2" stroke-opacity="0.200000" d="M139.05,-64.83C145.9,-57.03 156.64,-46 168,-39 170.43,-37.5 173.04,-36.14 175.72,-34.9"/>
<polygon fill="#000000" fill-opacity="0.200000" stroke="#000000" stroke-width="2" stroke-opacity="0.200000" points="176.58,-36.81 181.28,-32.52 174.93,-32.95 176.58,-36.81"/>
</g>
<!-- src/components/Grid.tsx -->
<g id="node3" class="node">
<title>src/components/Grid.tsx</title>
<g id="a_node3"><a xlink:href="src/components/Grid.tsx" xlink:title="Grid.tsx">
<path fill="#bbfeff" stroke="black" d="M229.5,-68C229.5,-68 187.5,-68 187.5,-68 184.5,-68 181.5,-65 181.5,-62 181.5,-62 181.5,-56 181.5,-56 181.5,-53 184.5,-50 187.5,-50 187.5,-50 229.5,-50 229.5,-50 232.5,-50 235.5,-53 235.5,-56 235.5,-56 235.5,-62 235.5,-62 235.5,-65 232.5,-68 229.5,-68"/>
<text text-anchor="start" x="190.5" y="-56.8" font-family="Helvetica,sans-Serif" font-size="9.00">Grid.tsx</text>
</a>
</g>
</g>
<!-- src/App.tsx&#45;&gt;src/components/Grid.tsx -->
<g id="edge2" class="edge">
<title>src/App.tsx&#45;&gt;src/components/Grid.tsx</title>
<path fill="none" stroke="#000000" stroke-width="2" stroke-opacity="0.200000" d="M157.65,-68.84C163.27,-67.73 169.26,-66.55 175.08,-65.4"/>
<polygon fill="#000000" fill-opacity="0.200000" stroke="#000000" stroke-width="2" stroke-opacity="0.200000" points="175.82,-67.39 181.3,-64.17 175,-63.27 175.82,-67.39"/>
</g>
<!-- src/components/Header.tsx -->
<g id="node4" class="node">
<title>src/components/Header.tsx</title>
<g id="a_node4"><a xlink:href="src/components/Header.tsx" xlink:title="Header.tsx">
<path fill="#bbfeff" stroke="black" d="M235,-98C235,-98 182,-98 182,-98 179,-98 176,-95 176,-92 176,-92 176,-86 176,-86 176,-83 179,-80 182,-80 182,-80 235,-80 235,-80 238,-80 241,-83 241,-86 241,-86 241,-92 241,-92 241,-95 238,-98 235,-98"/>
<text text-anchor="start" x="184" y="-86.8" font-family="Helvetica,sans-Serif" font-size="9.00">Header.tsx</text>
</a>
</g>
</g>
<!-- src/App.tsx&#45;&gt;src/components/Header.tsx -->
<g id="edge3" class="edge">
<title>src/App.tsx&#45;&gt;src/components/Header.tsx</title>
<path fill="none" stroke="#000000" stroke-width="2" stroke-opacity="0.200000" d="M157.65,-79.16C161.58,-79.94 165.69,-80.75 169.79,-81.56"/>
<polygon fill="#000000" fill-opacity="0.200000" stroke="#000000" stroke-width="2" stroke-opacity="0.200000" points="169.49,-83.64 175.79,-82.74 170.31,-79.52 169.49,-83.64"/>
</g>
<!-- src/config.ts -->
<g id="node6" class="node">
<title>src/config.ts</title>
<g id="a_node6"><a xlink:href="src/config.ts" xlink:title="config.ts">
<path fill="#ddfeff" stroke="black" d="M662,-77C662,-77 618,-77 618,-77 615,-77 612,-74 612,-71 612,-71 612,-65 612,-65 612,-62 615,-59 618,-59 618,-59 662,-59 662,-59 665,-59 668,-62 668,-65 668,-65 668,-71 668,-71 668,-74 665,-77 662,-77"/>
<text text-anchor="start" x="620" y="-65.8" font-family="Helvetica,sans-Serif" font-size="9.00">config.ts</text>
</a>
</g>
</g>
<!-- src/components/Grid.tsx&#45;&gt;src/config.ts -->
<g id="edge6" class="edge">
<title>src/components/Grid.tsx&#45;&gt;src/config.ts</title>
<path fill="none" stroke="#000000" stroke-width="2" stroke-opacity="0.200000" d="M230.06,-49.9C236.06,-47.6 242.7,-45.39 249,-44 303.17,-32.03 318.02,-35 373.5,-35 373.5,-35 373.5,-35 482.5,-35 534.37,-35 549.73,-25.77 599,-42 607.65,-44.85 616.25,-50.05 623.25,-55.05"/>
<polygon fill="#000000" fill-opacity="0.200000" stroke="#000000" stroke-width="2" stroke-opacity="0.200000" points="622.2,-56.89 628.26,-58.8 624.71,-53.53 622.2,-56.89"/>
</g>
<!-- src/components/Cell.tsx -->
<g id="node7" class="node">
<title>src/components/Cell.tsx</title>
<g id="a_node7"><a xlink:href="src/components/Cell.tsx" xlink:title="Cell.tsx">
<path fill="#bbfeff" stroke="black" d="M312.5,-68C312.5,-68 270.5,-68 270.5,-68 267.5,-68 264.5,-65 264.5,-62 264.5,-62 264.5,-56 264.5,-56 264.5,-53 267.5,-50 270.5,-50 270.5,-50 312.5,-50 312.5,-50 315.5,-50 318.5,-53 318.5,-56 318.5,-56 318.5,-62 318.5,-62 318.5,-65 315.5,-68 312.5,-68"/>
<text text-anchor="start" x="275" y="-56.8" font-family="Helvetica,sans-Serif" font-size="9.00">Cell.tsx</text>
</a>
</g>
</g>
<!-- src/components/Grid.tsx&#45;&gt;src/components/Cell.tsx -->
<g id="edge8" class="edge">
<title>src/components/Grid.tsx&#45;&gt;src/components/Cell.tsx</title>
<path fill="none" stroke="#000000" stroke-width="2" stroke-opacity="0.200000" d="M235.57,-59C242.8,-59 250.73,-59 258.26,-59"/>
<polygon fill="#000000" fill-opacity="0.200000" stroke="#000000" stroke-width="2" stroke-opacity="0.200000" points="258.47,-61.1 264.47,-59 258.47,-56.9 258.47,-61.1"/>
</g>
<!-- src/hooks/useMines.ts -->
<g id="node9" class="node">
<title>src/hooks/useMines.ts</title>
<g id="a_node9"><a xlink:href="src/hooks/useMines.ts" xlink:title="useMines.ts">
<path fill="#ddfeff" stroke="black" d="M320,-158C320,-158 263,-158 263,-158 260,-158 257,-155 257,-152 257,-152 257,-146 257,-146 257,-143 260,-140 263,-140 263,-140 320,-140 320,-140 323,-140 326,-143 326,-146 326,-146 326,-152 326,-152 326,-155 323,-158 320,-158"/>
<text text-anchor="start" x="265" y="-146.8" font-family="Helvetica,sans-Serif" font-size="9.00">useMines.ts</text>
</a>
</g>
</g>
<!-- src/components/Grid.tsx&#45;&gt;src/hooks/useMines.ts -->
<g id="edge7" class="edge">
<title>src/components/Grid.tsx&#45;&gt;src/hooks/useMines.ts</title>
<path fill="none" stroke="#000000" stroke-width="2" stroke-opacity="0.200000" d="M234.96,-68.2C237.26,-69.84 239.34,-71.76 241,-74 255.19,-93.13 235.22,-107.56 249,-127 251.72,-130.84 255.32,-134.06 259.26,-136.75"/>
<polygon fill="#000000" fill-opacity="0.200000" stroke="#000000" stroke-width="2" stroke-opacity="0.200000" points="258.19,-138.56 264.4,-139.89 260.37,-134.97 258.19,-138.56"/>
</g>
<!-- src/components/Dialog.tsx -->
<g id="node8" class="node">
<title>src/components/Dialog.tsx</title>
<g id="a_node8"><a xlink:href="src/components/Dialog.tsx" xlink:title="Dialog.tsx">
<path fill="#bbfeff" stroke="black" d="M316,-98C316,-98 267,-98 267,-98 264,-98 261,-95 261,-92 261,-92 261,-86 261,-86 261,-83 264,-80 267,-80 267,-80 316,-80 316,-80 319,-80 322,-83 322,-86 322,-86 322,-92 322,-92 322,-95 319,-98 316,-98"/>
<text text-anchor="start" x="269" y="-86.8" font-family="Helvetica,sans-Serif" font-size="9.00">Dialog.tsx</text>
</a>
</g>
</g>
<!-- src/components/Header.tsx&#45;&gt;src/components/Dialog.tsx -->
<g id="edge11" class="edge">
<title>src/components/Header.tsx&#45;&gt;src/components/Dialog.tsx</title>
<path fill="none" stroke="#000000" stroke-width="2" stroke-opacity="0.200000" d="M241.05,-89C245.51,-89 250.12,-89 254.65,-89"/>
<polygon fill="#000000" fill-opacity="0.200000" stroke="#000000" stroke-width="2" stroke-opacity="0.200000" points="254.76,-91.1 260.76,-89 254.76,-86.9 254.76,-91.1"/>
</g>
<!-- src/components/Header.tsx&#45;&gt;src/hooks/useMines.ts -->
<g id="edge9" class="edge">
<title>src/components/Header.tsx&#45;&gt;src/hooks/useMines.ts</title>
<path fill="none" stroke="#000000" stroke-width="2" stroke-opacity="0.200000" d="M236.41,-98.04C238.08,-99.21 239.64,-100.52 241,-102 248.91,-110.58 241.52,-118.05 249,-127 252.16,-130.78 256.15,-134.01 260.39,-136.72"/>
<polygon fill="#000000" fill-opacity="0.200000" stroke="#000000" stroke-width="2" stroke-opacity="0.200000" points="259.61,-138.7 265.86,-139.9 261.72,-135.07 259.61,-138.7"/>
</g>
<!-- src/hooks/usePoints.ts -->
<g id="node10" class="node">
<title>src/hooks/usePoints.ts</title>
<g id="a_node10"><a xlink:href="src/hooks/usePoints.ts" xlink:title="usePoints.ts">
<path fill="#ddfeff" stroke="black" d="M404,-158C404,-158 345,-158 345,-158 342,-158 339,-155 339,-152 339,-152 339,-146 339,-146 339,-143 342,-140 345,-140 345,-140 404,-140 404,-140 407,-140 410,-143 410,-146 410,-146 410,-152 410,-152 410,-155 407,-158 404,-158"/>
<text text-anchor="start" x="347" y="-146.8" font-family="Helvetica,sans-Serif" font-size="9.00">usePoints.ts</text>
</a>
</g>
</g>
<!-- src/components/Header.tsx&#45;&gt;src/hooks/usePoints.ts -->
<g id="edge10" class="edge">
<title>src/components/Header.tsx&#45;&gt;src/hooks/usePoints.ts</title>
<path fill="none" stroke="#000000" stroke-width="2" stroke-opacity="0.200000" d="M237.28,-98.21C238.66,-99.33 239.92,-100.59 241,-102 257.9,-124.05 228.13,-145.65 249,-164 262.52,-175.89 312.25,-166.97 330,-164 333.01,-163.5 338.11,-161.95 343.78,-160.04"/>
<polygon fill="#000000" fill-opacity="0.200000" stroke="#000000" stroke-width="2" stroke-opacity="0.200000" points="344.6,-161.98 349.58,-158.02 343.22,-158.01 344.6,-161.98"/>
</g>
<!-- src/Spot.ts -->
<g id="node5" class="node">
<title>src/Spot.ts</title>
<g id="a_node5"><a xlink:href="src/Spot.ts" xlink:title="Spot.ts">
<path fill="#ddfeff" stroke="black" d="M593,-66C593,-66 551,-66 551,-66 548,-66 545,-63 545,-60 545,-60 545,-54 545,-54 545,-51 548,-48 551,-48 551,-48 593,-48 593,-48 596,-48 599,-51 599,-54 599,-54 599,-60 599,-60 599,-63 596,-66 593,-66"/>
<text text-anchor="start" x="555.5" y="-54.8" font-family="Helvetica,sans-Serif" font-size="9.00">Spot.ts</text>
</a>
</g>
</g>
<!-- src/Spot.ts&#45;&gt;src/config.ts -->
<g id="edge4" class="edge">
<title>src/Spot.ts&#45;&gt;src/config.ts</title>
<path fill="none" stroke="#000000" stroke-width="2" stroke-opacity="0.200000" d="M599.08,-61.35C601.31,-61.72 603.57,-62.09 605.83,-62.47"/>
<polygon fill="#000000" fill-opacity="0.200000" stroke="#000000" stroke-width="2" stroke-opacity="0.200000" points="605.54,-64.55 611.8,-63.47 606.23,-60.41 605.54,-64.55"/>
</g>
<!-- src/components/Cell.tsx&#45;&gt;src/Spot.ts -->
<g id="edge5" class="edge">
<title>src/components/Cell.tsx&#45;&gt;src/Spot.ts</title>
<path fill="none" stroke="#000000" stroke-width="2" stroke-opacity="0.200000" d="M318.7,-58.81C369.81,-58.44 482.68,-57.63 538.48,-57.23"/>
<polygon fill="#000000" fill-opacity="0.200000" stroke="#000000" stroke-width="2" stroke-opacity="0.200000" points="538.68,-59.33 544.67,-57.19 538.65,-55.13 538.68,-59.33"/>
</g>
<!-- src/hooks/useMines.ts&#45;&gt;src/Spot.ts -->
<g id="edge16" class="edge">
<title>src/hooks/useMines.ts&#45;&gt;src/Spot.ts</title>
<path fill="none" stroke="#000000" stroke-width="2" stroke-opacity="0.200000" d="M315.26,-139.84C320.86,-136.57 326.3,-132.34 330,-127 343.36,-107.72 321.64,-90.77 339,-75 355.33,-60.16 515.01,-61.8 537,-60 537.47,-59.96 537.93,-59.92 538.41,-59.88"/>
<polygon fill="#000000" fill-opacity="0.200000" stroke="#000000" stroke-width="2" stroke-opacity="0.200000" points="538.84,-61.95 544.65,-59.36 538.49,-57.77 538.84,-61.95"/>
</g>
<!-- src/hooks/useMines.ts&#45;&gt;src/config.ts -->
<g id="edge14" class="edge">
<title>src/hooks/useMines.ts&#45;&gt;src/config.ts</title>
<path fill="none" stroke="#000000" stroke-width="2" stroke-opacity="0.200000" d="M314.65,-139.91C320.39,-136.61 326.05,-132.34 330,-127 340.31,-113.04 325.75,-100.2 339,-89 361.11,-70.31 570.15,-74.39 599,-72 601.22,-71.82 603.5,-71.62 605.8,-71.41"/>
<polygon fill="#000000" fill-opacity="0.200000" stroke="#000000" stroke-width="2" stroke-opacity="0.200000" points="606.12,-73.49 611.9,-70.84 605.73,-69.31 606.12,-73.49"/>
</g>
<!-- src/hooks/useMines.ts&#45;&gt;src/hooks/usePoints.ts -->
<g id="edge18" class="edge">
<title>src/hooks/useMines.ts&#45;&gt;src/hooks/usePoints.ts</title>
<path fill="none" stroke="#000000" stroke-width="2" stroke-opacity="0.200000" d="M326.38,-149C328.46,-149 330.57,-149 332.67,-149"/>
<polygon fill="#000000" fill-opacity="0.200000" stroke="#000000" stroke-width="2" stroke-opacity="0.200000" points="332.97,-151.1 338.97,-149 332.97,-146.9 332.97,-151.1"/>
</g>
<!-- src/contexts/MinesContext.tsx -->
<g id="node11" class="node">
<title>src/contexts/MinesContext.tsx</title>
<g id="a_node11"><a xlink:href="src/contexts/MinesContext.tsx" xlink:title="MinesContext.tsx">
<path fill="#bbfeff" stroke="black" d="M522.5,-121C522.5,-121 440.5,-121 440.5,-121 437.5,-121 434.5,-118 434.5,-115 434.5,-115 434.5,-109 434.5,-109 434.5,-106 437.5,-103 440.5,-103 440.5,-103 522.5,-103 522.5,-103 525.5,-103 528.5,-106 528.5,-109 528.5,-109 528.5,-115 528.5,-115 528.5,-118 525.5,-121 522.5,-121"/>
<text text-anchor="start" x="442.5" y="-109.8" font-family="Helvetica,sans-Serif" font-size="9.00">MinesContext.tsx</text>
</a>
</g>
</g>
<!-- src/hooks/useMines.ts&#45;&gt;src/contexts/MinesContext.tsx -->
<g id="edge15" class="edge">
<title>src/hooks/useMines.ts&#45;&gt;src/contexts/MinesContext.tsx</title>
<path fill="none" stroke="#000000" stroke-width="2" stroke-opacity="0.200000" d="M314.03,-139.96C319.89,-136.62 325.78,-132.32 330,-127 338.39,-116.43 328.13,-106 339,-98 354.22,-86.79 401.86,-94 437.7,-101.61"/>
<polygon fill="#000000" fill-opacity="0.200000" stroke="#000000" stroke-width="2" stroke-opacity="0.200000" points="437.48,-103.71 443.79,-102.93 438.37,-99.6 437.48,-103.71"/>
</g>
<!-- src/utils.ts -->
<g id="node13" class="node">
<title>src/utils.ts</title>
<g id="a_node13"><a xlink:href="src/utils.ts" xlink:title="utils.ts">
<path fill="#ddfeff" stroke="black" d="M395.5,-124C395.5,-124 353.5,-124 353.5,-124 350.5,-124 347.5,-121 347.5,-118 347.5,-118 347.5,-112 347.5,-112 347.5,-109 350.5,-106 353.5,-106 353.5,-106 395.5,-106 395.5,-106 398.5,-106 401.5,-109 401.5,-112 401.5,-112 401.5,-118 401.5,-118 401.5,-121 398.5,-124 395.5,-124"/>
<text text-anchor="start" x="359" y="-112.8" font-family="Helvetica,sans-Serif" font-size="9.00">utils.ts</text>
</a>
</g>
</g>
<!-- src/hooks/useMines.ts&#45;&gt;src/utils.ts -->
<g id="edge17" class="edge">
<title>src/hooks/useMines.ts&#45;&gt;src/utils.ts</title>
<path fill="none" stroke="#000000" stroke-width="2" stroke-opacity="0.200000" d="M313.29,-139.95C321.31,-136.49 330.57,-132.52 339,-129 341.03,-128.15 343.13,-127.28 345.24,-126.41"/>
<polygon fill="#000000" fill-opacity="0.200000" stroke="#000000" stroke-width="2" stroke-opacity="0.200000" points="346.08,-128.34 350.83,-124.12 344.48,-124.45 346.08,-128.34"/>
</g>
<!-- src/contexts/PointsContext.tsx -->
<g id="node12" class="node">
<title>src/contexts/PointsContext.tsx</title>
<g id="a_node12"><a xlink:href="src/contexts/PointsContext.tsx" xlink:title="PointsContext.tsx">
<path fill="#bbfeff" stroke="black" d="M523,-151C523,-151 440,-151 440,-151 437,-151 434,-148 434,-145 434,-145 434,-139 434,-139 434,-136 437,-133 440,-133 440,-133 523,-133 523,-133 526,-133 529,-136 529,-139 529,-139 529,-145 529,-145 529,-148 526,-151 523,-151"/>
<text text-anchor="start" x="442" y="-139.8" font-family="Helvetica,sans-Serif" font-size="9.00">PointsContext.tsx</text>
</a>
</g>
</g>
<!-- src/hooks/usePoints.ts&#45;&gt;src/contexts/PointsContext.tsx -->
<g id="edge19" class="edge">
<title>src/hooks/usePoints.ts&#45;&gt;src/contexts/PointsContext.tsx</title>
<path fill="none" stroke="#000000" stroke-width="2" stroke-opacity="0.200000" d="M410.17,-146.69C415.7,-146.32 421.53,-145.93 427.36,-145.54"/>
<polygon fill="#000000" fill-opacity="0.200000" stroke="#000000" stroke-width="2" stroke-opacity="0.200000" points="427.84,-147.62 433.69,-145.12 427.56,-143.42 427.84,-147.62"/>
</g>
<!-- src/contexts/MinesContext.tsx&#45;&gt;src/Spot.ts -->
<g id="edge13" class="edge">
<title>src/contexts/MinesContext.tsx&#45;&gt;src/Spot.ts</title>
<path fill="none" stroke="#000000" stroke-width="2" stroke-opacity="0.200000" d="M528.61,-103.37C531.54,-102.11 534.37,-100.66 537,-99 547.88,-92.14 556.86,-80.59 562.85,-71.33"/>
<polygon fill="#000000" fill-opacity="0.200000" stroke="#000000" stroke-width="2" stroke-opacity="0.200000" points="564.66,-72.4 566.03,-66.2 561.08,-70.19 564.66,-72.4"/>
</g>
<!-- src/contexts/MinesContext.tsx&#45;&gt;src/config.ts -->
<g id="edge12" class="edge">
<title>src/contexts/MinesContext.tsx&#45;&gt;src/config.ts</title>
<path fill="none" stroke="#000000" stroke-width="2" stroke-opacity="0.200000" d="M524.09,-102.96C546.48,-97.77 574.45,-90.75 599,-83 602.62,-81.86 606.39,-80.57 610.11,-79.25"/>
<polygon fill="#000000" fill-opacity="0.200000" stroke="#000000" stroke-width="2" stroke-opacity="0.200000" points="610.96,-81.17 615.88,-77.15 609.52,-77.23 610.96,-81.17"/>
</g>
<!-- src/index.css -->
<g id="node14" class="node">
<title>src/index.css</title>
<g id="a_node14"><a xlink:href="src/index.css" xlink:title="index.css">
<path fill="#ffffcc" stroke="black" d="M154,-208C154,-208 107,-208 107,-208 104,-208 101,-205 101,-202 101,-202 101,-196 101,-196 101,-193 104,-190 107,-190 107,-190 154,-190 154,-190 157,-190 160,-193 160,-196 160,-196 160,-202 160,-202 160,-205 157,-208 154,-208"/>
<text text-anchor="start" x="109" y="-196.8" font-family="Helvetica,sans-Serif" font-size="9.00">index.css</text>
</a>
</g>
</g>
<!-- src/main.tsx -->
<g id="node15" class="node">
<title>src/main.tsx</title>
<g id="a_node15"><a xlink:href="src/main.tsx" xlink:title="main.tsx">
<path fill="#bbfeff" stroke="black" d="M74,-179C74,-179 30,-179 30,-179 27,-179 24,-176 24,-173 24,-173 24,-167 24,-167 24,-164 27,-161 30,-161 30,-161 74,-161 74,-161 77,-161 80,-164 80,-167 80,-167 80,-173 80,-173 80,-176 77,-179 74,-179"/>
<text text-anchor="start" x="32" y="-167.8" font-family="Helvetica,sans-Serif" font-size="9.00">main.tsx</text>
</a>
</g>
</g>
<!-- src/main.tsx&#45;&gt;src/App.tsx -->
<g id="edge20" class="edge">
<title>src/main.tsx&#45;&gt;src/App.tsx</title>
<path fill="none" stroke="#000000" stroke-width="2" stroke-opacity="0.200000" d="M60.34,-160.8C73.79,-143.91 102.5,-107.88 118.37,-87.97"/>
<polygon fill="#000000" fill-opacity="0.200000" stroke="#000000" stroke-width="2" stroke-opacity="0.200000" points="120.2,-89.04 122.3,-83.04 116.92,-86.42 120.2,-89.04"/>
</g>
<!-- src/main.tsx&#45;&gt;src/contexts/MinesContext.tsx -->
<g id="edge21" class="edge">
<title>src/main.tsx&#45;&gt;src/contexts/MinesContext.tsx</title>
<path fill="none" stroke="#000000" stroke-width="2" stroke-opacity="0.200000" d="M80.3,-170.14C101.94,-170.41 132.93,-171.12 160,-173 196.13,-175.51 206.79,-170.1 241,-182 244.96,-183.38 244.97,-185.84 249,-187 267.05,-192.18 403.87,-199.37 418,-187 438.24,-169.28 408.31,-147.27 426,-127 427.04,-125.8 428.17,-124.7 429.38,-123.68"/>
<polygon fill="#000000" fill-opacity="0.200000" stroke="#000000" stroke-width="2" stroke-opacity="0.200000" points="430.66,-125.34 434.33,-120.14 428.22,-121.92 430.66,-125.34"/>
</g>
<!-- src/main.tsx&#45;&gt;src/contexts/PointsContext.tsx -->
<g id="edge22" class="edge">
<title>src/main.tsx&#45;&gt;src/contexts/PointsContext.tsx</title>
<path fill="none" stroke="#000000" stroke-width="2" stroke-opacity="0.200000" d="M80.28,-173.46C101.91,-176.22 132.91,-180.25 160,-184 273.73,-199.75 310.58,-237.53 418,-197 439.49,-188.89 458.38,-169.66 469.62,-156.23"/>
<polygon fill="#000000" fill-opacity="0.200000" stroke="#000000" stroke-width="2" stroke-opacity="0.200000" points="471.53,-157.22 473.68,-151.24 468.27,-154.57 471.53,-157.22"/>
</g>
<!-- src/main.tsx&#45;&gt;src/index.css -->
<g id="edge23" class="edge">
<title>src/main.tsx&#45;&gt;src/index.css</title>
<path fill="none" stroke="#000000" stroke-width="2" stroke-opacity="0.200000" d="M76.79,-179.02C84.13,-181.8 92.3,-184.9 99.98,-187.81"/>
<polygon fill="#000000" fill-opacity="0.200000" stroke="#000000" stroke-width="2" stroke-opacity="0.200000" points="99.37,-189.83 105.73,-189.99 100.86,-185.9 99.37,-189.83"/>
</g>
<!-- src/vite&#45;env.d.ts -->
<g id="node16" class="node">
<title>src/vite&#45;env.d.ts</title>
<g id="a_node16"><a xlink:href="src/vite-env.d.ts" xlink:title="vite&#45;env.d.ts">
<path fill="#ccffcc" stroke="black" d="M82,-95C82,-95 22,-95 22,-95 19,-95 16,-92 16,-89 16,-89 16,-83 16,-83 16,-80 19,-77 22,-77 22,-77 82,-77 82,-77 85,-77 88,-80 88,-83 88,-83 88,-89 88,-89 88,-92 85,-95 82,-95"/>
<text text-anchor="start" x="24" y="-83.8" font-family="Helvetica,sans-Serif" font-size="9.00">vite&#45;env.d.ts</text>
</a>
</g>
</g>
</g>
</svg>
